<svg width="33" height="31" viewBox="0 0 33 31" fill="none" xmlns="http://www.w3.org/2000/svg">
<path fill-rule="evenodd" clip-rule="evenodd" d="M28.875 5.8125H25.7812L24.75 3.875C24.1426 2.74834 23.826 1.9375 22.6875 1.9375H10.3125C9.174 1.9375 8.79656 2.86169 8.25 3.875L7.21875 5.8125H4.125C1.84697 5.8125 0 7.54753 0 9.6875V25.1875C0 27.3275 1.84697 29.0625 4.125 29.0625H28.875C31.153 29.0625 33 27.3275 33 25.1875V9.6875C33 7.54753 31.153 5.8125 28.875 5.8125ZM16.5 25.1875C11.9439 25.1875 8.25 21.7174 8.25 17.4375C8.25 13.1576 11.9439 9.6875 16.5 9.6875C21.0561 9.6875 24.75 13.1576 24.75 17.4375C24.75 21.7174 21.0561 25.1875 16.5 25.1875ZM16.5 11.625C13.0835 11.625 10.3125 14.228 10.3125 17.4375C10.3125 20.647 13.0835 23.25 16.5 23.25C19.9165 23.25 22.6875 20.647 22.6875 17.4375C22.6875 14.228 19.9165 11.625 16.5 11.625Z" fill="#854FE3"/>
</svg>
