<svg width="35" height="38" viewBox="0 0 35 38" fill="none" xmlns="http://www.w3.org/2000/svg">
<path fill-rule="evenodd" clip-rule="evenodd" d="M2.91675 9.5C2.91675 6.00219 5.52842 3.16666 8.75008 3.16666H26.2501C29.4717 3.16666 32.0834 6.00219 32.0834 9.5V28.5C32.0834 31.9977 29.4717 34.8333 26.2501 34.8333H8.75008C5.52842 34.8333 2.91675 31.9977 2.91675 28.5V9.5ZM8.75008 6.33333C7.13925 6.33333 5.83341 7.75109 5.83341 9.5V28.5C5.83341 30.2489 7.13925 31.6667 8.75008 31.6667H26.2501C27.861 31.6667 29.1667 30.2489 29.1667 28.5V9.5C29.1667 7.75109 27.861 6.33333 26.2501 6.33333H8.75008ZM17.5001 14.25C15.0838 14.25 13.1251 16.3766 13.1251 19C13.1251 21.6234 15.0838 23.75 17.5001 23.75C19.9164 23.75 21.8751 21.6234 21.8751 19C21.8751 16.3766 19.9164 14.25 17.5001 14.25ZM10.2084 19C10.2084 14.6277 13.473 11.0833 17.5001 11.0833C21.5271 11.0833 24.7917 14.6277 24.7917 19C24.7917 23.3722 21.5271 26.9167 17.5001 26.9167C13.473 26.9167 10.2084 23.3722 10.2084 19ZM25.5209 12.6667C26.729 12.6667 27.7084 11.6033 27.7084 10.2917C27.7084 8.97998 26.729 7.91666 25.5209 7.91666C24.3128 7.91666 23.3334 8.97998 23.3334 10.2917C23.3334 11.6033 24.3128 12.6667 25.5209 12.6667Z" fill="#535252"/>
</svg>
