<svg width="36" height="38" viewBox="0 0 36 38" fill="none" xmlns="http://www.w3.org/2000/svg">
<g clip-path="url(#clip0_380_20)">
<path d="M18.1283 -0.0130615C10.7494 -0.0130615 4.5 6.6215 4.5 14.4792C4.5 22.7086 11.7439 31.1244 16.6163 37.0393C16.6354 37.0631 17.4229 37.9858 18.3926 37.9858H18.4781C19.449 37.9858 20.2309 37.0631 20.25 37.0393C24.822 31.4913 31.5 22.3416 31.5 14.4792C31.5 6.62031 26.6254 -0.0130615 18.1283 -0.0130615ZM18.5794 35.4457C18.54 35.4873 18.4826 35.5336 18.432 35.5728C18.3803 35.5348 18.324 35.4873 18.2824 35.4457L17.694 34.7308C13.0747 29.1377 6.74888 21.4771 6.74888 14.478C6.74888 7.90875 11.9599 2.35956 18.1271 2.35956C25.8098 2.35956 29.2489 8.4455 29.2489 14.478C29.2489 19.7909 25.659 26.847 18.5794 35.4457ZM18.0394 7.17725C14.3123 7.17725 11.2894 10.3669 11.2894 14.3023C11.2894 18.2376 14.3123 21.4273 18.0394 21.4273C21.7665 21.4273 24.7894 18.2364 24.7894 14.3023C24.7894 10.3681 21.7676 7.17725 18.0394 7.17725ZM18.0394 19.0523C15.5576 19.0523 13.4876 16.8696 13.4876 14.25C13.4876 11.6304 15.5059 9.5 17.9876 9.5C20.4705 9.5 22.4876 11.6304 22.4876 14.25C22.4888 16.8696 20.5222 19.0523 18.0394 19.0523Z" fill="#535252"/>
</g>
<defs>
<clipPath id="clip0_380_20">
<rect width="36" height="38" fill="white"/>
</clipPath>
</defs>
</svg>
