<svg width="37" height="38" viewBox="0 0 37 38" fill="none" xmlns="http://www.w3.org/2000/svg">
<path d="M20.0416 30.0833C20.0416 30.9578 19.3514 31.6667 18.4999 31.6667C17.6485 31.6667 16.9583 30.9578 16.9583 30.0833C16.9583 29.2089 17.6485 28.5 18.4999 28.5C19.3514 28.5 20.0416 29.2089 20.0416 30.0833Z" fill="#535252"/>
<path fill-rule="evenodd" clip-rule="evenodd" d="M14.2359 1.58333L14.3109 1.58335C14.3226 1.58333 14.3343 1.58333 14.346 1.58335H22.6538C22.6655 1.58333 22.6772 1.58333 22.6889 1.58335L22.7639 1.58333C22.8009 1.58333 22.8366 1.58333 22.8716 1.58335H23.1249C23.1502 1.58335 23.1753 1.58397 23.2003 1.5852C23.3332 1.58718 23.4514 1.59119 23.5629 1.59934C26.6234 1.82313 29.0582 4.32369 29.276 7.46689C29.2917 7.69282 29.2916 7.94578 29.2916 8.28742V27.2523C29.2916 28.5483 29.2916 29.618 29.2213 30.4888C29.1481 31.3934 28.991 32.2245 28.5974 33.0028C28.0123 34.1596 27.0939 35.1028 25.9676 35.7037C25.2097 36.1079 24.4005 36.2693 23.5197 36.3445C22.6718 36.4167 21.6304 36.4167 20.3686 36.4167H16.6313C15.3695 36.4167 14.328 36.4167 13.4802 36.3445C12.5993 36.2693 11.7902 36.1079 11.0323 35.7037C9.90596 35.1028 8.98762 34.1596 8.40255 33.0028C8.00884 32.2245 7.8518 31.3934 7.77865 30.4888C7.70823 29.618 7.70824 28.5483 7.70827 27.2523L7.70826 8.28744C7.70821 7.9458 7.70818 7.69282 7.72384 7.46689C7.94174 4.32369 10.3765 1.82313 13.437 1.59934C13.5485 1.59119 13.6667 1.58718 13.7995 1.5852C13.8245 1.58397 13.8496 1.58335 13.8749 1.58335H14.1283C14.1632 1.58333 14.199 1.58333 14.2359 1.58333ZM14.2935 4.75002C13.8783 4.75002 13.7515 4.75101 13.656 4.75801C12.1257 4.86991 10.9083 6.12019 10.7994 7.69179C10.7926 7.78994 10.7916 7.92014 10.7916 8.34656V27.1858C10.7916 28.5649 10.7928 29.5024 10.8514 30.2268C10.9084 30.932 11.0117 31.2921 11.1387 31.5432C11.4313 32.1214 11.8904 32.5931 12.4536 32.8934C12.6981 33.0239 13.0486 33.13 13.7353 33.1886C14.4405 33.2487 15.3534 33.25 16.6962 33.25H20.3037C21.6465 33.25 22.5593 33.2487 23.2646 33.1886C23.9513 33.13 24.3018 33.0239 24.5463 32.8934C25.1094 32.5931 25.5686 32.1214 25.8611 31.5432C25.9881 31.2921 26.0914 30.932 26.1484 30.2268C26.207 29.5024 26.2083 28.5649 26.2083 27.1858V8.34656C26.2083 7.92014 26.2073 7.78994 26.2005 7.69179C26.0915 6.12019 24.8741 4.86991 23.3438 4.75801C23.2484 4.75101 23.1215 4.75002 22.7064 4.75002C22.6032 4.75002 22.5917 4.75027 22.5839 4.75059C22.3858 4.7583 22.1982 4.8441 22.0602 4.99016C22.0547 4.99589 22.0468 5.00452 21.9779 5.08323L21.2245 5.94293L21.2052 5.96477C21.1961 5.9749 21.1784 5.99464 21.1557 6.01804C21.1075 6.06782 21.0209 6.15185 20.8977 6.2352C20.75 6.33504 20.5875 6.40938 20.4165 6.45527C20.2738 6.49357 20.1549 6.50356 20.0868 6.50703C20.0545 6.50866 20.0283 6.50902 20.0151 6.50915L19.9864 6.50927H17.0136L16.9848 6.50915C16.9715 6.50902 16.9453 6.50866 16.9132 6.50703C16.8449 6.50356 16.7261 6.49357 16.5833 6.45527C16.4124 6.40938 16.2499 6.33504 16.1022 6.2352C15.979 6.15185 15.8923 6.06782 15.8441 6.01804C15.8216 5.99464 15.8037 5.9749 15.7946 5.96477L15.7753 5.94293L15.022 5.08323C14.953 5.00452 14.9451 4.99589 14.9397 4.99016C14.8016 4.8441 14.614 4.7583 14.4159 4.75059C14.4081 4.75027 14.3966 4.75002 14.2935 4.75002Z" fill="#535252"/>
</svg>
